<?xml version="1.0" standalone="no"?>
<!DOCTYPE svg PUBLIC "-//W3C//DTD SVG 20010904//EN"
 "http://www.w3.org/TR/2001/REC-SVG-20010904/DTD/svg10.dtd">
<svg version="1.0" xmlns="http://www.w3.org/2000/svg"
 width="500.000000pt" height="500.000000pt" viewBox="0 0 500.000000 500.000000"
 preserveAspectRatio="xMidYMid meet">
<metadata>
Created by potrace 1.11, written by Peter Selinger 2001-2013
</metadata>
<g transform="translate(0.000000,500.000000) scale(0.100000,-0.100000)"
fill="#000000" stroke="none">
<path d="M2247 4943 c-1 0 -38 -4 -82 -8 -44 -3 -93 -8 -110 -10 -187 -22
-248 -38 -187 -51 17 -3 32 -10 32 -15 0 -5 5 -9 12 -9 11 0 170 -76 213 -102
39 -24 60 -35 68 -36 4 -1 14 -7 21 -14 8 -7 24 -20 36 -28 12 -8 29 -21 36
-28 8 -7 14 -10 14 -5 0 4 5 0 11 -9 5 -10 16 -18 23 -18 8 0 16 -7 20 -15 3
-8 11 -15 17 -15 7 0 27 -16 45 -35 19 -18 34 -31 34 -28 0 3 15 -10 34 -29
19 -20 37 -33 40 -30 3 3 6 -2 6 -12 0 -9 3 -15 8 -13 4 2 15 -4 25 -15 9 -10
15 -18 12 -18 -2 0 18 -22 45 -50 28 -27 50 -52 50 -55 0 -3 8 -13 18 -23 34
-36 62 -72 88 -114 15 -24 32 -46 38 -50 6 -5 7 -8 1 -8 -5 0 -4 -4 2 -8 12
-8 45 -61 80 -132 10 -19 21 -36 26 -38 4 -2 7 -8 7 -13 0 -4 11 -33 25 -64
14 -30 25 -57 24 -60 0 -4 7 -17 15 -31 9 -13 14 -24 10 -24 -3 0 1 -11 10
-25 9 -14 14 -25 12 -25 -3 0 2 -19 10 -42 9 -24 17 -50 19 -58 2 -8 4 -15 5
-15 1 0 3 -7 5 -15 2 -8 6 -26 9 -40 3 -14 8 -36 11 -50 44 -198 52 -478 19
-675 -11 -65 -45 -206 -60 -252 -9 -26 -17 -52 -19 -58 -1 -5 -8 -23 -15 -40
-7 -16 -14 -33 -15 -37 -2 -5 -4 -10 -5 -13 -1 -3 -3 -8 -5 -12 -8 -28 -39
-89 -49 -95 -6 -4 -8 -8 -4 -8 4 0 -2 -17 -13 -37 -57 -103 -94 -163 -101
-163 -4 0 -8 -5 -8 -11 0 -13 -66 -102 -112 -151 -10 -10 -15 -18 -12 -18 9 0
-227 -231 -265 -260 -18 -14 -63 -46 -100 -72 -36 -26 -71 -52 -78 -58 -7 -5
-16 -10 -21 -10 -5 0 -15 -7 -22 -15 -7 -8 -16 -13 -20 -10 -5 3 -12 1 -15 -5
-14 -23 -321 -164 -385 -176 -13 -3 -30 -10 -37 -16 -7 -6 -13 -7 -13 -3 0 4
-6 2 -14 -4 -8 -6 -18 -11 -22 -10 -5 1 -11 0 -14 -1 -8 -3 -44 -11 -65 -15
-11 -2 -20 -4 -20 -5 0 -2 -20 -7 -57 -14 -16 -4 -40 -9 -55 -12 -229 -46
-574 -46 -803 1 -8 2 -15 4 -15 5 0 1 -11 3 -25 5 -14 1 -38 6 -55 10 -16 4
-37 8 -45 10 -8 2 -15 4 -15 5 0 1 -8 3 -19 5 -59 11 -229 78 -346 137 -129
64 -155 73 -132 46 6 -7 27 -44 48 -83 20 -38 42 -79 48 -90 6 -11 24 -38 40
-60 17 -22 48 -65 70 -95 23 -30 44 -56 49 -58 4 -2 7 -10 7 -18 0 -9 5 -12
10 -9 6 3 10 1 10 -6 0 -6 13 -25 30 -40 16 -16 27 -29 24 -29 -9 0 198 -203
263 -258 28 -24 75 -61 104 -83 30 -22 62 -47 72 -55 9 -7 22 -14 27 -14 6 0
10 -4 10 -10 0 -5 5 -10 11 -10 5 0 36 -17 67 -39 31 -21 77 -48 102 -61 25
-12 47 -25 50 -29 9 -12 245 -121 271 -126 9 -2 25 -8 35 -14 30 -16 194 -71
194 -64 0 3 6 1 13 -4 11 -9 122 -40 122 -34 0 1 13 -2 28 -8 15 -6 42 -13 60
-16 18 -3 55 -10 82 -15 110 -21 136 -25 250 -36 149 -15 488 -9 615 11 14 2
40 7 59 9 18 3 40 8 50 10 9 3 39 8 66 12 28 3 55 10 61 15 6 5 13 7 15 4 3
-2 38 5 79 16 41 11 89 24 105 28 80 22 195 65 195 73 0 5 4 7 10 3 5 -3 17
-1 27 5 16 9 71 32 83 34 9 2 105 47 120 57 8 5 27 14 43 20 15 6 27 14 27 18
0 4 6 8 13 8 13 0 119 62 128 76 3 5 9 7 12 5 3 -1 18 8 34 22 15 13 29 22 30
20 1 -3 12 3 23 13 11 9 25 17 30 17 6 0 10 5 10 10 0 6 6 10 14 10 8 0 16 3
18 8 2 4 32 30 68 57 90 70 121 97 224 200 113 113 134 137 224 255 40 52 77
100 82 107 6 7 10 17 10 23 0 5 5 10 11 10 5 0 8 4 5 9 -3 5 1 12 10 15 8 3
13 10 10 15 -3 4 3 16 14 26 11 10 17 22 14 26 -3 5 0 9 6 9 6 0 8 4 5 10 -3
5 -2 10 3 10 10 0 57 90 54 103 -1 4 3 7 8 7 6 0 10 9 10 20 0 11 3 20 8 20 4
0 13 15 21 32 7 18 20 46 27 62 8 16 11 32 8 37 -3 5 -1 9 5 9 7 0 35 66 46
110 1 3 5 12 8 20 17 38 56 183 52 191 -3 4 -1 10 4 13 5 3 12 27 16 53 5 27
9 53 11 58 1 6 5 28 9 50 3 22 8 51 11 65 10 59 18 195 17 320 0 141 -6 223
-28 368 -7 46 -35 173 -42 192 -3 8 -8 24 -10 35 -8 35 -10 41 -38 120 -10 28
-20 62 -22 78 -3 15 -9 27 -14 27 -5 0 -9 7 -9 15 0 8 -17 50 -37 92 -43 91
-39 82 -48 111 -4 12 -12 22 -18 22 -6 0 -7 3 -4 7 4 3 3 11 -2 17 -5 6 -18
27 -29 46 -47 83 -106 175 -113 178 -5 2 -9 10 -9 17 0 7 -3 15 -7 17 -11 4
-64 77 -61 82 2 2 -9 14 -24 26 -16 12 -28 25 -28 30 0 15 -172 195 -267 280
-57 50 -69 60 -133 110 -25 19 -46 38 -48 43 -2 4 -10 7 -18 7 -8 0 -14 5 -14
10 0 6 -7 10 -15 10 -8 0 -15 5 -15 10 0 6 -7 10 -15 10 -8 0 -15 4 -15 8 0 5
-12 15 -27 23 -16 8 -32 17 -38 22 -29 22 -87 57 -95 57 -5 0 -15 6 -22 13
-18 18 -266 138 -289 140 -10 1 -19 5 -19 9 0 4 -8 8 -18 8 -10 0 -22 3 -26 7
-5 6 -59 27 -91 37 -5 2 -17 6 -25 9 -12 5 -68 21 -112 33 -5 1 -9 2 -10 4 -3
2 -18 6 -56 14 -13 3 -32 8 -42 11 -10 3 -29 8 -42 10 -13 3 -57 11 -98 19
-183 36 -294 47 -503 49 -82 1 -149 1 -150 0z"/>
</g>
</svg>
